<?xml version="1.0" encoding="UTF-8" standalone="no"?>
<svg
   xmlns:dc="http://purl.org/dc/elements/1.1/"
   xmlns:cc="http://creativecommons.org/ns#"
   xmlns:rdf="http://www.w3.org/1999/02/22-rdf-syntax-ns#"
   xmlns:svg="http://www.w3.org/2000/svg"
   xmlns="http://www.w3.org/2000/svg"
   viewBox="0 0 27.092884 17.799229"
   height="17.799229"
   width="27.092884"
   id="svg2"
   version="1.1">
  <metadata
     id="metadata8">
    <rdf:RDF>
      <cc:Work
         rdf:about="">
        <dc:format>image/svg+xml</dc:format>
        <dc:type
           rdf:resource="http://purl.org/dc/dcmitype/StillImage" />
        <dc:title></dc:title>
      </cc:Work>
    </rdf:RDF>
  </metadata>
  <defs
     id="defs6" />
  <path
     id="path4487"
     d="m 0.02803945,16.297677 c 0,-0.814521 1.12500005,-1.763305 2.50000005,-2.108408 1.580568,-0.396698 1.995646,-0.09179 2.260095,-0.883139 0.207024,-0.61951 -0.606728,-0.763163 -1.172721,-2.265162 -1.090519,-2.8939538 -0.203453,-6.1060685 2.9598645,-6.0664385 3.195196,0.04003 4.331055,3.7120637 2.020287,7.0111505 -0.347695,0.496405 -0.999593,0.765449 -1.398023,1.522315 -0.445588,0.846447 -0.169503,1.909784 -0.169503,2.493136 0,0.582698 0.171608,1.77855 -0.298132,1.77855 -0.6189485,0 -1.6619475,-0.0011 -3.2018675,-0.0011 -1.552394,0 -2.67414105,0.01971 -3.27598905,0.01971 -0.36889,0 -0.224011,-1.131676 -0.224011,-1.50066 z M 9.248378,16.191761 c -0.005,-0.872761 -0.08954,-2.64451 1.551489,-3.26393 1.960715,-0.740087 5.049949,-0.510417 5.095986,-2.16665 C 15.917853,9.9697922 14.58655,8.3282752 14.399398,6.7359052 14.05134,3.7744762 14.341548,2.4839456 14.972041,1.515982 15.615161,0.52863793 16.78873,0.00489963 17.989934,2.4532117e-5 19.124294,-0.00457547 20.581969,0.63849793 21.078949,1.2828182 c 0.66675,0.8644216 0.957031,2.1457331 0.62276,5.343863 -0.203654,1.948456 -1.159432,3.237693 -1.122478,4.1356778 0.07037,1.709975 3.09018,2.036703 5.08306,2.503714 1.684849,0.394827 1.420833,2.039141 1.420833,2.911916 0,0.428386 0.09831,1.598009 -0.329115,1.598009 -0.368395,0 -3.603292,0.0026 -8.72597,0.0026 -5.194453,0 -7.146266,0.02063 -8.332962,0.02063 -0.498993,0 -0.443339,-1.024825 -0.446699,-1.607489 z"
     style="fill:#cccccc" />
</svg>
